<svg version="1.0" xmlns="http://www.w3.org/2000/svg" width="720" height="720" viewBox="0 0 540 540">
	<path d="M435 15.5c0 3.3.2 3.5 3.4 3.5 3.2 0 3.4-.2 3.3-3.5-.1-3.3-.3-3.5-3.4-3.5s-3.3.2-3.3 3.5zM319.5 55.8c-1.3 1.3-.4 6.1 1.3 6.4 3.4.8 5.2-.3 5.2-3.3 0-1.6-.3-2.9-.7-3-.5 0-1.8-.2-3.1-.3-1.2-.2-2.4 0-2.7.2zM424.8 62.8c-1.2.2-1.8 1.3-1.8 3.3 0 2.8.2 3 3.2 2.7 2.7-.2 3.2-.7 3.3-3 .2-2.7-1.4-3.7-4.7-3zM376.4 77.9c-.2.2-.4 1.7-.4 3.3 0 2.5.3 2.8 3.3 2.8s3.3-.3 3.1-2.8c-.1-1.5-.2-3-.3-3.4-.1-.8-4.9-.7-5.7.1zM403 117v5h10v-10h-10v5zM300.2 117c.1 1.6.4 3 .7 3.1 5.6.7 6.1.5 6.1-2.8 0-3.1-.2-3.3-3.4-3.3-3.2 0-3.5.2-3.4 3zM350.8 114.7c-.3.7-.3 3.8.1 10.8.1 1.8.7 2 6.5 1.7l6.4-.4.4-3.6c.1-2 .2-4.9 0-6.5-.3-2.6-.5-2.7-6.7-2.7-3.5 0-6.5.3-6.7.7zM358.9 137c-.1.8-.1 5-.2 9.2 0 9.1.6 8.7-12.4 8.5l-9.3-.2-.1 5c-.1 2.7-.1 7.6 0 10.7.1 6.2.1 6.2-7.3 7.3-21.1 3.1-45.7 18.1-55.6 33.8-1.9 3.1-3.7 5.6-4 5.6-.3 0-2.5-1.8-5-4-19.7-17.7-44.2-29.9-69-34.3-1.9-.3-4.6-.8-5.9-1.1-10.6-2-39.4-2.7-53.7-1.3-20.8 2.2-45.6 11-64.2 23.1-26.3 17-48.3 44.9-59 74.7-5.3 14.6-5.9 17.3-9.7 39-1.1 6.1-1.4 42.2-.5 50 1.8 14.8 2.1 16.7 5.1 28.8 5.8 23.3 14.7 41.7 29.6 60.8 29.1 37.9 70.4 55.8 125.9 54.8 11.4-.2 20.2-.9 25.5-2 1.3-.2 4.2-.7 6.4-1 6.6-.9 18.4-4.2 28.5-8.1 17.2-6.5 31-15.4 45.1-29l8.6-8.3-8.9 20.7c-4.9 11.5-9.6 22.2-10.3 24-.8 1.7-1.5 3.4-1.5 3.7 0 .3 44.7.6 99.4.6 84.5 0 100.6-.2 107.3-1.5 26.3-5 46.1-17.5 58.6-37 2.4-3.9 4.8-8.1 5.2-9.5.4-1.4 1.1-3 1.5-3.5.4-.6 1.7-3.9 2.8-7.5 2-6.2 2.6-8.9 3.7-15.3.3-1.5.8-3.9 1.1-5.5 1.3-6.1 1.3-39.8 0-48.2-4.1-26.1-15.1-44.3-34.6-57.1-10.3-6.8-15.9-9.4-29.1-13.6l-11.4-3.7-53-.6c-59.8-.6-59.1-.6-67-8.4-4.6-4.7-6.3-9.4-6.6-18.1-.4-16.2 5.8-26.5 18.3-30.2 3.1-.9 21.6-1.2 71.7-1.2h74.7l7.2-.1 4.2-9.8c5.2-11.9 8.6-19.4 11-24.7 4.1-9.2 6.4-14.2 8-18 1-2.2 2.7-6.2 4-9 3.7-8.3 4.1-9.5 2.7-9.6-.6 0-27.5-.1-59.7-.2l-58.5-.2-.3-13.5c-.2-7.4-.5-13.6-.7-13.8-.3-.3-21.8-.6-26.7-.3-1.6.1-1.8 1.5-1.8 14v13.8h-12.5l-12.5-.1V156h15v-10c0-5.5-.3-10-.7-10.1-.5 0-5-.2-10.1-.2-7.5-.2-9.2.1-9.3 1.3zM185.8 249c19.9 6.4 32.5 20.3 41 45.5 4.8 14.3 6.7 26.9 6.6 45-.1 18-.4 21.7-2.5 32-3.2 15.1-8.2 28.2-14.6 38.5-11.7 18.6-30.6 27.5-56.3 26.5-31.7-1.1-50-14.7-64.1-47.6-4.1-9.4-8.3-24.3-9.6-33.9-1.9-14.3.8-42.7 5.1-54.5.5-1.1 1.3-3.4 1.8-5 4.4-12.3 13.2-26.1 21.8-33.8 12.8-11.5 32.5-17.1 54.8-15.5 5.1.3 12.3 1.6 16 2.8zm135.7 121.6c13.6 4.1 16.9 4.4 66.7 4.4 40.3.1 49.1.3 52.7 1.6 14.6 5 21.2 17.7 18.2 34.9-1.5 8.6-4 13.4-9.1 17.7-8 6.9-6.2 6.8-85.4 6.8h-71.2l4.8-9.6c7.3-14.9 15.8-44.2 15.8-54.5 0-3.3.6-3.5 7.5-1.3z"/>
	<path d="M323 147.7v6.8l6-.1c3.3-.1 6.3-.4 6.6-.7.5-.5.8-7.9.5-11.5-.1-.8-2.1-1.2-6.6-1.2H323v6.7zM307.5 164.8c-1.4 3.7-.6 5.2 3 5.2 3.3 0 3.5-.2 3.5-3.3 0-3-.3-3.3-3-3.3-1.6 0-3.2.6-3.5 1.4z"/>
</svg>